<svg width="375" height="253" viewBox="0 0 375 253" fill="none" xmlns="http://www.w3.org/2000/svg">
  <path fill-rule="evenodd" clip-rule="evenodd" d="M0 0H375V187.235C375 187.235 357.306 216.5 319.989 216.344C282.672 216.187 253.201 199.551 200.845 199.551C148.488 199.551 123.356 233.949 78.4159 234.371C33.4761 234.794 0 199.551 0 199.551V0Z" fill="url(#paint0_linear)" fill-opacity="0.9"/>
  <path fill-rule="evenodd" clip-rule="evenodd" d="M0 0H375V260.392C375 260.392 339.367 242.179 301.095 241.497C256.604 240.703 239.07 277.377 187.5 277.377C124.153 277.377 97.5803 217.706 50.3359 217.706C23.0509 217.706 0 234.917 0 234.917V0Z" transform="translate(375 -25) scale(-1 1)" fill="url(#paint1_linear)" fill-opacity="0.7"/>
  <path fill-rule="evenodd" clip-rule="evenodd" d="M160.597 28.6949V53.6898C160.597 56.8936 163.346 59.4998 166.725 59.4998H185.196C186.244 59.4998 187.094 58.6604 187.094 57.6248C187.094 56.5892 186.244 55.7498 185.196 55.7498H166.725C165.439 55.7498 164.391 54.8254 164.391 53.6898V29.9998H180.547C181.615 29.9998 182.482 29.225 182.482 28.269C182.482 27.313 181.615 26.5382 180.547 26.5382H164.391V5.81067C164.391 4.67444 165.439 3.75 166.725 3.75H183.603C184.651 3.75 185.501 2.91064 185.501 1.875C185.501 0.840027 184.651 0 183.603 0H166.725C163.346 0 160.597 2.60687 160.597 5.81067V27.8431C160.558 27.9793 160.538 28.122 160.538 28.269C160.538 28.416 160.558 28.5587 160.597 28.6949ZM194 1.85974V0.000183105H192.02C190.927 0.000183105 190.04 0.8396 190.04 1.87518V58.125C190.04 59.1606 190.927 60 192.02 60H194V58.1404L194 58.125V1.87518L194 1.85974ZM150.761 57.8748C150.761 58.9104 151.61 59.7498 152.656 59.7498C153.703 59.7498 154.552 58.9104 154.552 57.8748V6.19934C154.552 3.99182 153.394 2.02307 151.454 0.933105C149.514 -0.157532 147.211 -0.133179 145.295 0.997437L81.1752 38.829C78.7703 40.2484 75.7818 40.2477 73.377 38.829L9.25607 0.997437C7.34018 -0.133179 5.03769 -0.157532 3.09842 0.933105C1.15851 2.02307 0 3.99182 0 6.19934V57.8748C0 58.9104 0.848969 59.7498 1.89505 59.7498C2.94174 59.7498 3.7901 58.9104 3.7901 57.8748V6.19934C3.7901 4.98749 4.61572 4.39313 4.97009 4.19373C5.3251 3.99432 6.26315 3.59808 7.31491 4.21808L71.4352 42.0496C75.0384 44.1753 79.5138 44.1753 83.1163 42.0496L147.237 4.21808C148.288 3.59808 149.227 3.99432 149.581 4.19373C149.936 4.39313 150.761 4.98749 150.761 6.19934V57.8748Z" transform="translate(91 104)" fill="white"/>
  <defs>
    <linearGradient id="paint0_linear" x2="1" gradientUnits="userSpaceOnUse" gradientTransform="translate(382.753 6.31352) scale(517.141 323.215) rotate(137.743)">
      <stop stop-color="#FE9A8B"/>
      <stop offset="0.408502" stop-color="#FD868C"/>
      <stop offset="1" stop-color="#F9748F"/>
    </linearGradient>
    <linearGradient id="paint1_linear" x2="1" gradientUnits="userSpaceOnUse" gradientTransform="translate(-8.01265) scale(512.254 378.9) rotate(41.6084)">
      <stop stop-color="#FE9A8B"/>
      <stop offset="0.408502" stop-color="#FD868C"/>
      <stop offset="1" stop-color="#F9748F"/>
    </linearGradient>
  </defs>
</svg>

